<svg xmlns="http://www.w3.org/2000/svg" width="57" height="37" viewBox="0 0 57 37"><defs><style>.cls-1{fill:#3389f7;fill-rule:evenodd}</style></defs><path id="Фигура_2053" data-name="Фигура 2053" class="cls-1" d="M985.126 6104.13a11.6 11.6 0 0 0-3.134.42l-3.059-7.99 1.107-1.15a1.191 1.191 0 0 0-.012-1.67l-2.375-2.39a1.2 1.2 0 0 0-.84-.35h-5.937a1.2 1.2 0 0 0 0 2.39h5.445l1.2 1.2-.821.85a1.2 1.2 0 0 0-.259 1.25v.01l1.092 2.85-16.16 2.03v-2.23h3.563a1.19 1.19 0 0 0 0-2.38h-7.125a1.19 1.19 0 0 0 0 2.38H959v3.26l-1.658 2.86a11.716 11.716 0 0 0-5.466-1.34 11.935 11.935 0 1 0 11.636 14.32h1.63a3.559 3.559 0 0 0 6.92-1.19 3.535 3.535 0 0 0-.748-2.19l7.607-11.9.854 2.24a11.865 11.865 0 1 0 5.351-1.28zm-16.625 9.55a3.626 3.626 0 0 0-.666.06l-5.715-9.85 14.7-1.84-7.5 11.72a3.673 3.673 0 0 0-.82-.09zm-16.625 11.93a9.545 9.545 0 0 1 0-19.09 9.411 9.411 0 0 1 4.267 1.01l-5.294 9.13a1.2 1.2 0 0 0 .428 1.63 1.18 1.18 0 0 0 .6.16h9.2a9.518 9.518 0 0 1-9.201 7.16zm9.5-9.55h-7.432l4.175-7.19a9.552 9.552 0 0 1 3.256 7.19zm-2.044-9.28l.857-1.48 5.6 9.64a3.667 3.667 0 0 0-.641 1.12h-1.398a11.942 11.942 0 0 0-4.419-9.28zm9.17 11.67a1.2 1.2 0 1 1 1.187-1.19 1.194 1.194 0 0 1-1.189 1.19zm16.625 7.16a9.555 9.555 0 0 1-4.491-17.96l3.383 8.84a1.2 1.2 0 0 0 1.108.77 1.283 1.283 0 0 0 .426-.08 1.2 1.2 0 0 0 .684-1.54l-3.387-8.85a9.543 9.543 0 1 1 2.276 18.82z" transform="translate(-940 -6091)"/></svg>