<svg xmlns="http://www.w3.org/2000/svg" width="65" height="65" viewBox="0 0 65 65"><defs><style>.cls-1{fill:#fff;fill-rule:evenodd;opacity:.59}</style></defs><path id="Фигура_2036" data-name="Фигура 2036" class="cls-1" d="M1226.5 3391a32.5 32.5 0 1 0 32.5 32.5 32.5 32.5 0 0 0-32.5-32.5zm12.26 33.54l-17.31 11.12a1.224 1.224 0 0 1-.67.2 1.238 1.238 0 0 1-1.23-1.24v-22.24a1.237 1.237 0 0 1 1.9-1.04l17.31 11.12a1.3 1.3 0 0 1 .37.37 1.242 1.242 0 0 1-.37 1.71z" transform="translate(-1194 -3391)"/></svg>