<svg xmlns="http://www.w3.org/2000/svg" width="23.19" height="14.12" viewBox="0 0 23.19 14.12"><defs><style>.cls-1{fill:#fff;fill-rule:evenodd}</style></defs><path id="Фигура_2027" data-name="Фигура 2027" class="cls-1" d="M1509.29 6399.7a10.812 10.812 0 0 0-2.3-2.82c-1.94-1.91-1.68-1.6.66-4.9 1.42-2 1.99-3.23 1.81-3.76-.09-.31-1.22-.23-1.22-.23h-3.48a.925.925 0 0 0-.76.37c-.39.68-.55 1.55-1.29 2.87-1.55 2.79-2.17 2.94-2.42 2.77-.59-.41-.45-1.63-.45-2.49 0-2.7.39-3.83-.75-4.12a6.467 6.467 0 0 0-1.63-.17 7.841 7.841 0 0 0-2.89.31c-.39.2-.7.66-.51.69a1.492 1.492 0 0 1 1.02.55 3.722 3.722 0 0 1 .35 1.67s.2 3.18-.48 3.57c-.47.27-1.11-.28-2.5-2.81-.71-1.3-.78-2.14-1.24-2.73a1.545 1.545 0 0 0-.83-.48h-3.31a1.139 1.139 0 0 0-.68.11.8.8 0 0 0-.01.62s2.59 6.42 5.53 9.66a7.957 7.957 0 0 0 5.75 2.83s1.78.08 2.02-.35a1.2 1.2 0 0 0 .19-.65s-.03-1.97.83-2.25 1.95 1.9 3.1 2.74a2.056 2.056 0 0 0 1.54.51h3.1s1.62-.17.85-1.51z" transform="translate(-1486.31 -6387.22)"/></svg>