<?xml version="1.0" encoding="utf-8"?>
<!-- Generator: Adobe Illustrator 21.0.1, SVG Export Plug-In . SVG Version: 6.00 Build 0)  -->
<svg version="1.1" id="Слой_1" xmlns="http://www.w3.org/2000/svg" xmlns:xlink="http://www.w3.org/1999/xlink" x="0px" y="0px"
	 viewBox="0 0 379 73" style="enable-background:new 0 0 379 73;" xml:space="preserve">
<style type="text/css">
	.st0{fill:#FFFFFF;}
	.st1{fill:#468AFA;}
</style>
<path class="st0" d="M85.6,56.7c-2.9,0-5.3-2.4-5.3-5.3c0-2.9,2.4-5.3,5.3-5.3s5.3,2.4,5.3,5.3C90.9,54.3,88.5,56.7,85.6,56.7z
	 M85.6,48.7c-1.5,0-2.7,1.2-2.7,2.7c0,1.5,1.2,2.7,2.7,2.7s2.7-1.2,2.7-2.7C88.3,49.9,87.1,48.7,85.6,48.7z"/>
<path class="st0" d="M22.7,56.4c-2.9,0-5.3-2.4-5.3-5.3s2.4-5.3,5.3-5.3S28,48.1,28,51S25.6,56.4,22.7,56.4z M22.7,48.3
	c-1.5,0-2.7,1.2-2.7,2.7s1.2,2.7,2.7,2.7c1.5,0,2.7-1.2,2.7-2.7S24.2,48.3,22.7,48.3z"/>
<path class="st0" d="M53.5,56.4c-2.9,0-5.3-2.4-5.3-5.3s2.4-5.3,5.3-5.3s5.3,2.4,5.3,5.3S56.5,56.4,53.5,56.4z M53.5,48.3
	c-1.5,0-2.7,1.2-2.7,2.7s1.2,2.7,2.7,2.7s2.7-1.2,2.7-2.7S55,48.3,53.5,48.3z"/>
<path class="st0" d="M73.8,19.2H45.1c0.6,0.7,1,1.6,1,2.6c0,2.2-1.8,4-4,4s-4-1.8-4-4c0-1,0.4-1.9,1-2.6l-1.8,5.2L22.3,44.5
	c-0.8,1.1-0.6,2.7,0.6,3.6c0.5,0.3,1,0.5,1.5,0.5c0.8,0,1.6-0.4,2.1-1l15.3-20.7l6.9,22.1H28.1c-1.4,0-2.5,1.2-2.5,2.6
	s1.1,2.6,2.5,2.6h22.7c-0.8-0.7-1.3-1.8-1.3-3c0-2.2,1.8-4,4-4c0,0,0,0,0.1,0l-7.1-22.6h22.6L53.7,47c2,0.1,3.6,1.7,3.8,3.7
	l16.9-24.9c0.3-0.5,0.5-1.1,0.4-1.7c0.9-0.4,1.5-1.3,1.5-2.3C76.4,20.3,75.2,19.2,73.8,19.2z"/>
<path class="st0" d="M42.1,27.1c-2.9,0-5.3-2.4-5.3-5.3s2.4-5.3,5.3-5.3s5.3,2.4,5.3,5.3S45,27.1,42.1,27.1z M42.1,19
	c-1.5,0-2.7,1.2-2.7,2.7s1.2,2.7,2.7,2.7s2.7-1.2,2.7-2.7S43.6,19,42.1,19z"/>
<path class="st0" d="M82.7,48.5c0.7-0.7,1.7-1.2,2.8-1.2c0.2,0,0.4,0,0.5,0c0.3-0.6,0.4-1.4,0.1-2.1L72.9,8.3
	c-0.5-1.3-1.9-2-3.3-1.5c-1.3,0.5-2,2-1.5,3.3l13.4,37.1C81.7,47.8,82.2,48.2,82.7,48.5z"/>
<path class="st1" d="M97.3,62.3c-4.4,5.1-11.5,7.2-17.7,4.7c-8-3.2-11.7-12.8-8.2-21.4c3.5-8.6,12.8-13,20.8-9.7
	c1.5,0.6,2.9,1.5,4.1,2.5l2.9-4.1c-1.5-1.3-3.2-2.3-5.1-3.1c-10.4-4.2-22.5,1.5-27,12.6C62.5,55,67.3,67.4,77.7,71.6
	c8.8,3.5,18.8,0,24.4-7.9L97.3,62.3z"/>
<path class="st1" d="M34.9,62.3c-4.4,5.1-11.4,7.1-17.6,4.6c-8-3.2-11.7-12.8-8.2-21.4c3.5-8.6,12.8-13,20.8-9.7
	c1.3,0.5,2.5,1.2,3.5,2.1l2.9-4.1c-1.4-1.1-2.9-2-4.6-2.6C21.4,27,9.3,32.7,4.8,43.8C0.3,55,5,67.4,15.4,71.6
	c8.8,3.5,18.8,0,24.4-7.9L34.9,62.3z"/>
<path class="st0" d="M88.6,11.6H70.9c-1.6,0-2.9-1-2.9-2.3s1.3-2.3,2.9-2.3h14.4L88.6,11.6z"/>
<path class="st0" d="M49.1,10.9H31.3c-1.6,0-2.9-1-2.9-2.3s1.3-2.3,2.9-2.3h14.4L49.1,10.9z"/>
<rect x="35.4" y="11.7" transform="matrix(0.2642 0.9645 -0.9645 0.2642 43.3738 -27.9497)" class="st0" width="9.1" height="5.5"/>
<g>
	<path class="st0" d="M149.2,60c0,1.8-0.4,3.3-1.1,4.7c-0.7,1.3-1.7,2.5-3,3.3c-1.3,0.9-2.9,1.6-4.7,2s-3.8,0.7-6.1,0.7
		c-1,0-2,0-3-0.1c-1-0.1-1.9-0.2-2.8-0.3c-0.9-0.1-1.8-0.2-2.6-0.4c-0.8-0.2-1.5-0.3-2.2-0.5v-4.9c1.4,0.5,3.1,1,4.8,1.3
		c1.8,0.3,3.8,0.5,6.1,0.5c1.6,0,3.1-0.1,4.2-0.4c1.2-0.3,2.1-0.6,2.8-1.2s1.3-1.1,1.6-1.9c0.3-0.7,0.5-1.6,0.5-2.5
		c0-1-0.3-1.9-0.8-2.6c-0.6-0.7-1.3-1.4-2.2-1.9c-0.9-0.6-2-1.1-3.1-1.6s-2.4-1-3.6-1.5c-1.2-0.5-2.4-1-3.6-1.6
		c-1.2-0.6-2.2-1.3-3.1-2.1s-1.7-1.7-2.2-2.8c-0.6-1.1-0.8-2.3-0.8-3.8c0-1.3,0.3-2.5,0.8-3.8s1.4-2.4,2.5-3.3
		c1.1-1,2.6-1.7,4.4-2.3c1.8-0.6,3.9-0.9,6.3-0.9c0.6,0,1.3,0,2.1,0.1c0.7,0.1,1.5,0.1,2.2,0.2c0.8,0.1,1.5,0.2,2.2,0.4
		c0.7,0.1,1.4,0.3,2.1,0.4v4.6c-1.5-0.4-3-0.7-4.4-1c-1.5-0.2-2.9-0.3-4.3-0.3c-2.9,0-5.1,0.5-6.5,1.5s-2.1,2.3-2.1,3.9
		c0,1,0.3,1.9,0.8,2.6s1.3,1.4,2.2,2c0.9,0.6,2,1.1,3.1,1.6c1.2,0.5,2.4,1,3.6,1.5c1.2,0.5,2.4,1,3.6,1.6c1.2,0.6,2.2,1.3,3.1,2.1
		c0.9,0.8,1.7,1.8,2.2,2.9C149,57.2,149.2,58.5,149.2,60z"/>
	<path class="st0" d="M182.7,55.5c0,2.2-0.3,4.3-0.9,6.2c-0.6,1.9-1.5,3.5-2.7,4.8c-1.2,1.3-2.6,2.4-4.3,3.1
		c-1.7,0.7-3.6,1.1-5.8,1.1c-2.1,0-3.9-0.3-5.6-1c-1.6-0.6-3-1.6-4.2-2.8c-1.1-1.2-2-2.8-2.6-4.6c-0.6-1.8-0.9-4-0.9-6.4
		c0-2.2,0.3-4.3,0.9-6.1c0.6-1.8,1.5-3.4,2.7-4.8c1.2-1.3,2.6-2.4,4.3-3.1s3.6-1.1,5.8-1.1c2.1,0,3.9,0.3,5.6,1
		c1.6,0.6,3,1.6,4.2,2.8c1.1,1.2,2,2.8,2.6,4.6C182.4,51,182.7,53.1,182.7,55.5z M177.6,55.7c0-1.8-0.2-3.3-0.6-4.7s-1-2.4-1.7-3.3
		c-0.7-0.9-1.6-1.6-2.7-2c-1-0.5-2.2-0.7-3.5-0.7c-1.5,0-2.8,0.3-3.8,0.9c-1.1,0.6-1.9,1.4-2.6,2.3c-0.7,1-1.2,2.1-1.5,3.4
		c-0.3,1.3-0.5,2.6-0.5,4.1c0,1.8,0.2,3.3,0.6,4.7c0.4,1.3,1,2.5,1.7,3.3c0.7,0.9,1.6,1.6,2.6,2s2.2,0.7,3.5,0.7
		c1.5,0,2.8-0.3,3.8-0.9s1.9-1.4,2.6-2.3s1.2-2.1,1.5-3.4S177.6,57.2,177.6,55.7z"/>
	<path class="st0" d="M199.8,33.6h-8.5v-4.1h13.6V66h8.6v4.2h-23.1V66h9.5V33.6z"/>
	<path class="st0" d="M240.8,70.2l-0.1-3.9c-1.6,1.6-3.2,2.7-4.8,3.4c-1.6,0.7-3.3,1-5.1,1c-1.7,0-3.1-0.2-4.2-0.6
		c-1.2-0.4-2.1-1-2.9-1.7c-0.8-0.7-1.3-1.6-1.7-2.6c-0.4-1-0.5-2.1-0.5-3.2c0-2.9,1.1-5.2,3.2-6.8c2.2-1.6,5.3-2.5,9.6-2.5h6v-2.5
		c0-1.7-0.5-3.1-1.6-4.1c-1.1-1-2.8-1.5-5-1.5c-1.6,0-3.2,0.2-4.8,0.5c-1.6,0.4-3.2,0.9-4.9,1.6v-4.5c0.6-0.2,1.3-0.5,2.1-0.7
		c0.8-0.2,1.6-0.4,2.5-0.6s1.8-0.3,2.7-0.4c0.9-0.1,1.9-0.2,2.8-0.2c1.7,0,3.3,0.2,4.7,0.6c1.4,0.4,2.6,1,3.6,1.8
		c1,0.8,1.7,1.8,2.2,3s0.8,2.6,0.8,4.2v19.9H240.8z M240.3,57h-6.4c-1.2,0-2.3,0.1-3.2,0.4s-1.6,0.6-2.2,1.1c-0.6,0.5-1,1-1.3,1.7
		c-0.3,0.6-0.4,1.4-0.4,2.2c0,0.6,0.1,1.1,0.3,1.6s0.5,1,0.8,1.4c0.4,0.4,0.9,0.7,1.5,0.9c0.6,0.2,1.4,0.3,2.2,0.3
		c1.2,0,2.5-0.3,4-1c1.5-0.7,3.1-1.8,4.7-3.3V57z"/>
	<path class="st0" d="M255.8,41.3h4.6l0.1,5.3c1.7-2.1,3.4-3.5,5-4.5c1.7-0.9,3.3-1.4,5-1.4c3,0,5.3,1,6.8,2.9
		c1.5,1.9,2.3,4.8,2.1,8.6h-5.1c0.1-2.5-0.3-4.4-1.1-5.5c-0.8-1.1-2-1.7-3.5-1.7c-0.7,0-1.3,0.1-2,0.4c-0.7,0.2-1.4,0.6-2.1,1.2
		c-0.7,0.5-1.5,1.2-2.3,2s-1.7,1.8-2.6,3v18.5h-5.1V41.3z"/>
	<path class="st0" d="M296.9,33.6h-8.5v-4.1h13.6V66h8.6v4.2h-23.1V66h9.5V33.6z"/>
	<path class="st0" d="M338,70.2l-0.1-3.9c-1.6,1.6-3.2,2.7-4.8,3.4c-1.6,0.7-3.3,1-5.1,1c-1.6,0-3.1-0.2-4.2-0.6
		c-1.2-0.4-2.1-1-2.9-1.7c-0.8-0.7-1.3-1.6-1.7-2.6c-0.4-1-0.5-2.1-0.5-3.2c0-2.9,1.1-5.2,3.2-6.8c2.2-1.6,5.3-2.5,9.6-2.5h6v-2.5
		c0-1.7-0.5-3.1-1.6-4.1c-1.1-1-2.8-1.5-5-1.5c-1.6,0-3.2,0.2-4.8,0.5c-1.6,0.4-3.2,0.9-4.9,1.6v-4.5c0.6-0.2,1.3-0.5,2.1-0.7
		s1.6-0.4,2.5-0.6c0.9-0.2,1.8-0.3,2.7-0.4c0.9-0.1,1.9-0.2,2.8-0.2c1.7,0,3.3,0.2,4.7,0.6c1.4,0.4,2.6,1,3.6,1.8s1.7,1.8,2.2,3
		c0.5,1.2,0.8,2.6,0.8,4.2v19.9H338z M337.4,57h-6.4c-1.2,0-2.3,0.1-3.2,0.4c-0.9,0.2-1.6,0.6-2.2,1.1c-0.6,0.5-1,1-1.3,1.7
		c-0.3,0.6-0.4,1.4-0.4,2.2c0,0.6,0.1,1.1,0.3,1.6c0.2,0.5,0.5,1,0.8,1.4c0.4,0.4,0.9,0.7,1.5,0.9c0.6,0.2,1.4,0.3,2.2,0.3
		c1.2,0,2.5-0.3,4-1c1.5-0.7,3.1-1.8,4.7-3.3V57z"/>
	<path class="st0" d="M376.5,55.2c0,2.4-0.3,4.5-1,6.4s-1.6,3.5-2.8,4.8c-1.2,1.3-2.7,2.3-4.4,3s-3.7,1-5.9,1
		c-1.7,0-3.5-0.2-5.2-0.5c-1.8-0.3-3.5-0.8-5.3-1.6V29.5h5v11.2l-0.2,5.3c1.4-1.9,3-3.3,4.6-4.1c1.6-0.8,3.4-1.2,5.3-1.2
		c1.6,0,3.1,0.3,4.3,1c1.2,0.7,2.3,1.7,3.1,2.9c0.8,1.3,1.5,2.8,1.9,4.5S376.5,53,376.5,55.2z M371.3,55.4c0-1.5-0.1-2.9-0.3-4.2
		c-0.2-1.3-0.6-2.3-1-3.2c-0.5-0.9-1.1-1.6-1.8-2.1c-0.7-0.5-1.6-0.8-2.7-0.8c-0.6,0-1.3,0.1-1.9,0.3c-0.7,0.2-1.3,0.5-2,1
		s-1.4,1.1-2.2,1.9s-1.6,1.7-2.5,2.9v14c1,0.4,2,0.7,3,0.9c1,0.2,2,0.3,2.9,0.3c1.1,0,2.2-0.2,3.3-0.5c1-0.4,2-1,2.8-1.8
		c0.8-0.9,1.4-2,1.9-3.4C371.1,59.3,371.3,57.5,371.3,55.4z"/>
</g>
</svg>
