<?xml version="1.0" encoding="utf-8"?>
<!-- Generator: Adobe Illustrator 21.0.1, SVG Export Plug-In . SVG Version: 6.00 Build 0)  -->
<svg version="1.1" id="Слой_1" xmlns="http://www.w3.org/2000/svg" xmlns:xlink="http://www.w3.org/1999/xlink" x="0px" y="0px"
	 viewBox="0 0 285.3 202.3" style="enable-background:new 0 0 285.3 202.3;" xml:space="preserve">
<style type="text/css">
	.st0{fill:#FFFFFF;}
</style>
<path class="st0" d="M265.7,165.1c-12.2,14.1-31.6,19.9-48.7,12.9c-22-8.9-32.1-35.3-22.5-59c3.9-9.6,10.4-17.2,18.2-22.3l9.6,26.6
	c0.2,0.6,0.5,1,0.8,1.5c-2.6,2.7-4.3,6.3-4.3,10.3c0,8.1,6.6,14.7,14.7,14.7c8.1,0,14.7-6.6,14.7-14.7c0-7.3-5.4-13.4-12.5-14.5
	c0-0.8-0.1-1.5-0.4-2.3l-9.9-27.5c8.5-2.3,17.6-2.1,26.2,1.4c4.2,1.7,7.9,4,11.2,6.8l8-11.2c-4.1-3.5-8.8-6.3-14-8.4
	c-11.8-4.7-24.3-4.9-35.9-1.3l-19-52.6h40l-9.2-12.9h-37.1c-1.8-1.1-3.9-1.4-6-0.6c-2.9,1.1-4.7,4-4.5,7c0,0,0,0,0,0.1
	c0,0,0,0.1,0,0.1c0,0.3,0.1,0.6,0.1,0.9c0,0.2,0.1,0.4,0.1,0.6c0,0.2,0.1,0.3,0.1,0.5l9.1,25.2h-68c-1.9-3.4-5.1-5.9-8.9-7
	l-4.3-15.7H133l-9.2-12.6H84.3c-4.4,0-8,2.8-8,6.3s3.6,6.3,8,6.3h13.3l5.4,19.8c-2.5,2.6-4,6.1-4,10c0,2.3,0.6,4.4,1.5,6.3l-0.3,0.9
	L86.1,79.8c-0.3-0.1-0.5-0.2-0.8-0.4C56.7,68,23.5,83.5,11.1,114.2c-12.4,30.7,0.7,65,29.3,76.6c24.1,9.7,51.6,0.1,67.1-21.7
	L94,165.2c-12.2,14-31.5,19.7-48.6,12.8c-22-8.9-32.1-35.3-22.5-59c9.2-22.7,33.2-34.7,54.6-27.7L59.3,116c-0.8,1.1-1.2,2.3-1.3,3.6
	c-7,1.2-12.3,7.2-12.3,14.5c0,8.1,6.6,14.7,14.7,14.7c5.3,0,9.9-2.8,12.4-7c0.8,0.3,1.6,0.5,2.5,0.5h57.8c2.6,3.9,7.1,6.5,12.2,6.5
	c8.1,0,14.7-6.6,14.7-14.7c0-1.7-0.4-3.4-0.9-4.9l42.6-62.7l6.4,17.6c-11,6.7-20.2,17-25.5,30.2c-12.4,30.7,0.7,65,29.3,76.6
	c24.2,9.8,51.7,0.1,67.1-21.8L265.7,165.1z M241,135.1c0,4.2-3.4,7.5-7.5,7.5c-4.2,0-7.5-3.4-7.5-7.5c0-4.2,3.4-7.5,7.5-7.5
	C237.7,127.6,241,131,241,135.1z M121.3,53.6c0,4.2-3.4,7.5-7.5,7.5c-4.2,0-7.5-3.4-7.5-7.5c0-4.2,3.4-7.5,7.5-7.5
	C117.9,46.1,121.3,49.4,121.3,53.6z M60.4,141.6c-4.2,0-7.5-3.4-7.5-7.5c0-4.2,3.4-7.5,7.5-7.5s7.5,3.4,7.5,7.5
	C67.9,138.2,64.5,141.6,60.4,141.6z M73.8,128.1c-0.7-1.5-1.6-2.9-2.8-4.2l41.3-55.8c0.3,0,0.6,0.1,1,0.1l18.6,59.6c0,0,0,0.1,0,0.1
	H75.4C74.8,128,74.3,128,73.8,128.1z M145.3,141.6c-4.2,0-7.5-3.4-7.5-7.5c0-4.2,3.4-7.5,7.5-7.5c4.2,0,7.5,3.4,7.5,7.5
	C152.8,138.2,149.5,141.6,145.3,141.6z M148.2,119.6c-0.9-0.2-1.9-0.3-2.9-0.3c-0.3,0-0.6,0.1-0.9,0.1l-18.2-58.2
	c0.1-0.2,0.2-0.3,0.3-0.5h61.7L148.2,119.6z"/>
</svg>
