<svg xmlns="http://www.w3.org/2000/svg" width="23.19" height="14.12" viewBox="0 0 23.19 14.12">
  <metadata><?xpacket begin="﻿" id="W5M0MpCehiHzreSzNTczkc9d"?>
<x:xmpmeta xmlns:x="adobe:ns:meta/" x:xmptk="Adobe XMP Core 5.6-c142 79.160924, 2017/07/13-01:06:39        ">
   <rdf:RDF xmlns:rdf="http://www.w3.org/1999/02/22-rdf-syntax-ns#">
      <rdf:Description rdf:about=""/>
   </rdf:RDF>
</x:xmpmeta>
<?xpacket end="w"?></metadata>
<defs>
    <style>
      .cls-1 {
        fill: #fff;
        fill-rule: evenodd;
      }
    </style>
  </defs>
  <path id="Фигура_2027" data-name="Фигура 2027" class="cls-1" d="M1509.29,6399.7a10.812,10.812,0,0,0-2.3-2.82c-1.94-1.91-1.68-1.6.66-4.9,1.42-2,1.99-3.23,1.81-3.76-0.09-.31-1.22-0.23-1.22-0.23h-3.48a0.925,0.925,0,0,0-.76.37c-0.39.68-.55,1.55-1.29,2.87-1.55,2.79-2.17,2.94-2.42,2.77-0.59-.41-0.45-1.63-0.45-2.49,0-2.7.39-3.83-.75-4.12a6.467,6.467,0,0,0-1.63-.17,7.841,7.841,0,0,0-2.89.31c-0.39.2-.7,0.66-0.51,0.69a1.492,1.492,0,0,1,1.02.55,3.722,3.722,0,0,1,.35,1.67s0.2,3.18-.48,3.57c-0.47.27-1.11-.28-2.5-2.81-0.71-1.3-.78-2.14-1.24-2.73a1.545,1.545,0,0,0-.83-0.48h-3.31a1.139,1.139,0,0,0-.68.11,0.8,0.8,0,0,0-.01.62s2.59,6.42,5.53,9.66a7.957,7.957,0,0,0,5.75,2.83s1.78,0.08,2.02-.35a1.2,1.2,0,0,0,.19-0.65s-0.03-1.97.83-2.25,1.95,1.9,3.1,2.74a2.056,2.056,0,0,0,1.54.51h3.1S1510.06,6401.04,1509.29,6399.7Z" transform="translate(-1486.31 -6387.22)"/>
</svg>
